<svg xmlns="http://www.w3.org/2000/svg" viewBox="0 0 100 100">
<style>.m{fill:#0d2c4b;stroke:#0d2c4b}@media (prefers-color-scheme:dark){.m{fill:#ffffff;stroke:#ffffff}}</style>
<g transform="translate(5 22.464065708418893) scale(0.09240246406570841)"><path class="m" stroke-width="43.28888888888889" stroke-linejoin="round" stroke-linecap="round" d="M 606.894 3.750 C 604.963 5.813, 598.909 13.035, 593.441 19.800 C 587.974 26.565, 578.439 38.265, 572.254 45.800 C 566.069 53.335, 555.882 65.800, 549.617 73.500 C 543.352 81.200, 537.386 88.400, 536.358 89.500 C 535.330 90.600, 529.255 98.025, 522.858 106 C 516.461 113.975, 510.388 121.400, 509.363 122.500 C 508.338 123.600, 503.012 130.125, 497.527 137 C 492.042 143.875, 487.092 149.983, 486.527 150.573 C 485.153 152.008, 479.807 158.488, 470.500 170 C 461.873 180.671, 457.178 186.366, 454.095 189.903 C 451.454 192.932, 451.448 195.053, 454.071 198.097 C 455.210 199.419, 457.122 201.625, 458.321 203 C 459.519 204.375, 461.236 206.625, 462.135 208 C 463.034 209.375, 464.753 211.625, 465.956 213 C 467.158 214.375, 469.122 216.625, 470.321 218 C 471.519 219.375, 474.975 223.650, 478 227.500 C 485.784 237.407, 488.176 240.011, 489.415 239.926 C 490.012 239.885, 494.550 234.705, 499.500 228.415 C 508.176 217.391, 510.620 214.390, 515.319 208.998 C 516.519 207.622, 522.737 199.972, 529.137 191.998 C 535.537 184.024, 541.612 176.600, 542.637 175.500 C 543.662 174.400, 551.700 164.502, 560.500 153.504 C 569.300 142.507, 577.481 132.382, 578.679 131.004 C 583.273 125.724, 584.844 123.798, 596.500 109.141 C 603.100 100.843, 609.343 93.768, 610.374 93.420 C 612.578 92.675, 612.840 92.945, 626.500 109.986 C 635.479 121.188, 639.437 125.988, 642.500 129.389 C 643.050 130, 648 136.125, 653.500 143 C 659 149.875, 663.950 155.983, 664.500 156.573 C 665.925 158.102, 671.622 165.019, 680.500 176 C 689.548 187.191, 695.108 193.938, 696.510 195.427 C 697.066 196.017, 702.760 203.025, 709.165 211 C 715.569 218.975, 721.655 226.400, 722.688 227.500 C 723.721 228.600, 726.351 231.790, 728.533 234.590 C 732.234 239.339, 739.141 247.841, 754.046 266 C 757.432 270.125, 763.507 277.550, 767.546 282.500 C 771.585 287.450, 777.654 294.875, 781.033 299 C 793.978 314.803, 802.647 325.509, 806.467 330.410 C 808.649 333.210, 811.279 336.400, 812.312 337.500 C 813.345 338.600, 819.435 346.024, 825.845 353.997 C 836.238 366.925, 840.186 371.709, 843.500 375.389 C 844.050 376, 849 382.125, 854.500 389 C 860 395.875, 864.950 401.983, 865.500 402.573 C 866.925 404.102, 872.622 411.019, 881.500 422 C 893.370 436.681, 896.343 440.225, 898.439 442.186 C 900.238 443.870, 903.014 444, 937.189 444 C 957.435 444, 974 443.744, 974 443.430 C 974 442.439, 967.715 433.642, 964.404 430 C 961.247 426.527, 952.150 415.350, 944.533 405.585 C 942.351 402.788, 939.721 399.600, 938.688 398.500 C 937.655 397.400, 931.565 389.976, 925.155 382.003 C 914.762 369.075, 910.814 364.291, 907.500 360.611 C 906.950 360, 902.001 353.875, 896.501 347 C 891.002 340.125, 886.232 334.275, 885.901 334 C 883.207 331.761, 883 327.220, 883 270.266 C 883 225.815, 882.706 211.106, 881.800 210.200 C 879.979 208.379, 828.660 208.500, 827.142 210.329 C 826.427 211.191, 825.944 219.724, 825.769 234.579 C 825.568 251.725, 825.194 257.500, 824.287 257.500 C 823.620 257.500, 819.651 253.225, 815.466 248 C 807.598 238.176, 801.239 230.439, 799.500 228.573 C 798.950 227.983, 794 221.884, 788.500 215.019 C 779.523 203.816, 775.569 199.020, 772.500 195.611 C 771.950 195, 767 188.875, 761.500 182 C 756 175.125, 751.050 169.017, 750.500 168.427 C 749.075 166.898, 743.378 159.981, 734.500 149 C 725.622 138.019, 719.925 131.102, 718.500 129.573 C 717.950 128.983, 713 122.875, 707.500 116 C 702 109.125, 697.050 103.017, 696.500 102.427 C 695.075 100.898, 689.378 93.981, 680.500 83 C 671.622 72.019, 665.925 65.102, 664.500 63.573 C 663.950 62.983, 659 56.875, 653.500 50 C 648 43.125, 643.050 37.017, 642.500 36.427 C 640.676 34.470, 635.233 27.816, 616.120 4.180 C 614.261 1.881, 612.215 0, 611.573 0 C 610.931 0, 608.826 1.688, 606.894 3.750 M 352.500 162.154 C 348.100 167.683, 343.670 173.173, 342.655 174.353 C 339.506 178.017, 334.487 184.121, 326.500 194 C 317.543 205.078, 311.909 211.917, 310.495 213.427 C 309.943 214.017, 305.005 220.125, 299.522 227 C 294.040 233.875, 289.092 240, 288.527 240.611 C 285.756 243.607, 281.650 248.580, 272.512 260.009 C 263.609 271.143, 259.792 275.760, 256.489 279.389 C 255.934 280, 250.247 287.025, 243.853 295 C 237.458 302.975, 231.386 310.400, 230.358 311.500 C 229.330 312.600, 223.255 320.025, 216.858 328 C 210.461 335.975, 204.386 343.400, 203.358 344.500 C 202.330 345.600, 196.255 353.025, 189.858 361 C 183.461 368.975, 177.388 376.400, 176.363 377.500 C 175.338 378.600, 168.322 387.150, 160.771 396.500 C 146.119 414.642, 120.465 446.082, 75.500 501 C 68.070 510.075, 55.806 525.150, 48.248 534.500 C 40.690 543.850, 33.674 552.400, 32.657 553.500 C 31.641 554.600, 25.573 562.025, 19.174 570 C 12.774 577.975, 5.847 586.300, 3.780 588.500 C -3.537 596.288, -4.810 596, 36.933 596 L 73.866 596 77.683 591.251 C 79.782 588.640, 81.950 586.019, 82.500 585.429 C 83.930 583.893, 89.641 576.957, 98.500 566 C 107.457 554.922, 113.091 548.083, 114.505 546.573 C 115.057 545.983, 119.995 539.875, 125.478 533 C 130.960 526.125, 135.908 520, 136.473 519.389 C 139.323 516.308, 143.519 511.226, 154.137 497.998 C 160.537 490.024, 166.614 482.600, 167.642 481.500 C 168.670 480.400, 174.745 472.975, 181.142 465 C 187.539 457.025, 193.612 449.600, 194.637 448.500 C 195.662 447.400, 203.585 437.725, 212.245 427 C 220.904 416.275, 234.069 400.075, 241.500 391 C 248.930 381.925, 261.194 366.850, 268.752 357.500 C 276.310 348.150, 283.326 339.600, 284.343 338.500 C 285.359 337.400, 291.431 329.975, 297.835 322 C 304.240 314.025, 309.934 307.017, 310.490 306.427 C 311.892 304.938, 317.452 298.191, 326.500 287 C 334.487 277.121, 339.506 271.017, 342.655 267.353 C 343.670 266.173, 348.100 260.683, 352.500 255.154 C 356.900 249.625, 361.030 245.079, 361.679 245.051 C 363.415 244.976, 364.289 245.949, 380.500 266 C 389.378 276.981, 395.075 283.898, 396.500 285.427 C 397.050 286.017, 402 292.125, 407.500 299 C 413 305.875, 417.950 311.983, 418.500 312.573 C 419.925 314.102, 425.622 321.019, 434.500 332 C 443.378 342.981, 449.075 349.898, 450.500 351.427 C 451.050 352.017, 456 358.116, 461.500 364.981 C 470.571 376.302, 474.635 381.229, 477.510 384.389 C 478.066 385, 483.760 392.025, 490.165 400 C 496.569 407.975, 502.641 415.400, 503.657 416.500 C 504.674 417.600, 511.690 426.150, 519.249 435.500 C 526.808 444.850, 539.978 461.050, 548.517 471.500 C 557.055 481.950, 570.220 498.150, 577.771 507.500 C 585.322 516.850, 592.338 525.400, 593.363 526.500 C 594.388 527.600, 600.463 535.024, 606.863 542.998 C 617.231 555.915, 621.158 560.677, 624.500 564.389 C 625.050 565, 629.990 571.125, 635.478 578 C 640.966 584.875, 646.699 591.737, 648.219 593.250 L 650.982 596 687.491 596 C 721.596 596, 724 595.885, 723.998 594.250 C 723.996 593.288, 722.610 590.925, 720.917 589 C 719.225 587.075, 712.591 578.975, 706.175 571 C 699.760 563.025, 693.670 555.600, 692.642 554.500 C 691.614 553.400, 685.537 545.976, 679.137 538.002 C 668.519 524.774, 664.323 519.692, 661.473 516.611 C 660.908 516, 655.960 509.875, 650.478 503 C 644.995 496.125, 640.057 490.017, 639.505 489.427 C 638.091 487.917, 632.457 481.078, 623.500 470 C 614.622 459.019, 608.925 452.102, 607.500 450.573 C 606.950 449.983, 602 443.875, 596.500 437 C 591 430.125, 586.050 424.017, 585.500 423.427 C 584.075 421.898, 578.378 414.981, 569.500 404 C 560.622 393.019, 554.925 386.102, 553.500 384.573 C 552.950 383.983, 548 377.875, 542.500 371 C 537 364.125, 532.050 358.017, 531.500 357.427 C 530.075 355.898, 524.378 348.981, 515.500 338 C 506.622 327.019, 500.925 320.102, 499.500 318.573 C 498.950 317.983, 494 311.875, 488.500 305 C 483 298.125, 478.050 292.017, 477.500 291.427 C 476.075 289.898, 470.378 282.981, 461.500 272 C 452.452 260.809, 446.892 254.062, 445.490 252.573 C 444.934 251.983, 439.240 244.975, 432.835 237 C 426.431 229.025, 420.358 221.600, 419.340 220.500 C 418.323 219.400, 412.248 211.975, 405.840 204 C 399.433 196.025, 393.360 188.597, 392.345 187.493 C 391.330 186.390, 386 179.873, 380.500 173.013 C 365.293 154.044, 363.436 151.975, 361.679 152.051 C 361.030 152.079, 356.900 156.625, 352.500 162.154 M 305.450 443.271 C 305.181 443.970, 305.083 455.107, 305.231 468.021 L 305.500 491.500 329.430 491.769 C 347.906 491.976, 353.543 491.748, 354.164 490.769 C 355.094 489.304, 355.304 445.956, 354.393 443.582 C 353.863 442.200, 350.755 442, 329.862 442 C 311.437 442, 305.825 442.292, 305.450 443.271 M 369.450 443.271 C 369.181 443.970, 369.083 455.107, 369.231 468.021 L 369.500 491.500 394.250 491.767 L 419 492.035 419 467.017 L 419 442 394.469 442 C 375.553 442, 369.826 442.291, 369.450 443.271 M 305.885 505.070 C 305.352 505.400, 305.077 515.934, 305.232 530.070 L 305.500 554.500 329.430 554.769 C 347.906 554.976, 353.543 554.748, 354.164 553.769 C 354.607 553.071, 354.976 541.813, 354.985 528.750 C 354.997 510.420, 354.715 504.995, 353.750 504.978 C 331.655 504.589, 306.585 504.637, 305.885 505.070 M 371.233 504.822 L 368.965 505.144 369.233 529.822 L 369.500 554.500 394.215 554.767 L 418.931 555.035 419.215 530.767 C 419.372 517.420, 419.212 506.122, 418.859 505.659 C 418.256 504.868, 376.125 504.127, 371.233 504.822"/></g>
</svg>